<svg width="162" height="108" viewBox="0 0 162 108" fill="none" xmlns="http://www.w3.org/2000/svg">
<g id="Delay">
<path id="shape" d="M130.156 24.6882C130.156 29.7239 124.497 34.3393 115.089 37.9268C132.46 41.6417 143.888 47.9488 143.888 55.1045C143.888 59.2025 140.14 63.0222 133.674 66.236C150.779 69.9637 162 76.2212 162 83.3118C162 94.7376 132.864 104 96.922 104C60.9804 104 31.844 94.7376 31.844 83.3118C31.844 79.2138 35.592 75.3941 42.0578 72.1803C24.9528 68.4526 13.7317 62.1951 13.7317 55.1045C13.7317 50.0688 19.3911 45.4534 28.7984 41.8659C11.4279 38.151 0 31.8439 0 24.6882C0 13.2624 29.1364 4 65.078 4C101.02 4 130.156 13.2624 130.156 24.6882Z" fill="#C4C4C4"/>
<path id="props" d="M139 53L147 53" stroke="#00D300"/>
<path id="props_2" d="M10 57L19 57" stroke="#00D300"/>
<path id="out" d="M96 99V108" stroke="#0000FF"/>
<path id="in" d="M65 9V0" stroke="#0000FF"/>
</g>
</svg>
